# xmcd
#
# Track frame offsets:
#	150
#	21795
#	40780
#	60400
#	78969
#	104292
#	123215
#	142033
#	159077
#	177897
#	196693
#	217143
#	241172
#	262757
#
# Disc length: 3750 seconds
#
# Revision: 2
# Processed by: cddbd v1.5.2PL0 Copyright (c) Steve Scherf et al.
# Submitted via: EasyCDDAExtractor 15.3.0.1
#
DISCID=aa0ea40e
DTITLE=Gloria Trevi - El Amor
DYEAR=2015
DGENRE=Latin
TTITLE0=Como Yo Te Amo
TTITLE1=Perdoname
TTITLE2=Cama Y Mesa
TTITLE3=Te Quiero
TTITLE4=Y Ahora Quien
TTITLE5=El Amor Despues Del Amor
TTITLE6=Las Pequeñas Cosas
TTITLE7=Desahogo
TTITLE8=Tu Y Yo
TTITLE9=Muera El Amor
TTITLE10=Como Si Fuera La Primera Vez (Aka La Primera Vez)
TTITLE11=El Amor
TTITLE12=Inmortal (Bonus Track)
TTITLE13=Sin Miedo A Nada (Bonus Track)
EXTD=
EXTT0=
EXTT1=
EXTT2=
EXTT3=
EXTT4=
EXTT5=
EXTT6=
EXTT7=
EXTT8=
EXTT9=
EXTT10=
EXTT11=
EXTT12=
EXTT13=
PLAYORDER=
